<?xml version="1.0" encoding="UTF-8"?>
<svg xmlns="http://www.w3.org/2000/svg" viewBox="0 0 509.36 509.36">
  <defs>
    <style>
      .cls-1 {
        isolation: isolate;
      }

      .cls-2 {
        fill: #1f1f1f;
      }

      .cls-2, .cls-3 {
        stroke-width: 0px;
      }

      .cls-4 {
        mix-blend-mode: multiply;
      }

      .cls-3 {
        fill: #ffe600;
      }
    </style>
  </defs>
  <g class="cls-1">
    <g id="Layer_2" data-name="Layer 2">
      <g id="set">
        <g>
          <path class="cls-3" d="M509.35,261.16c-.53,20.73-49.13,33.62-54.73,52.6-5.79,19.65,27.85,56.84,17.39,73.9-10.61,17.31-59.13,4.21-73.75,18.11-14.62,13.89-4.01,63.01-21.83,72.73-17.57,9.58-53-25.91-72.92-21.13-19.25,4.62-34.59,52.51-55.32,51.98-20.73-.53-33.62-49.13-52.6-54.73-19.65-5.79-56.84,27.85-73.9,17.39-17.31-10.61-4.21-59.13-18.11-73.75-13.89-14.62-63.01-4.01-72.73-21.83-9.58-17.57,25.91-53,21.13-72.92C47.36,284.27-.52,268.93,0,248.2c.53-20.73,49.13-33.62,54.73-52.6,5.79-19.65-27.85-56.84-17.39-73.9,10.61-17.31,59.13-4.21,73.75-18.11,14.62-13.89,4.01-63.01,21.83-72.73,17.57-9.58,53,25.91,72.92,21.13C225.09,47.36,240.43-.52,261.16,0c20.73.53,33.62,49.13,52.6,54.73,19.65,5.79,56.84-27.85,73.9-17.39,17.31,10.61,4.21,59.13,18.11,73.75,13.89,14.62,63.01,4.01,72.73,21.83,9.58,17.57-25.91,53-21.13,72.92,4.62,19.25,52.51,34.59,51.98,55.32Z"/>
          <g class="cls-4">
            <path class="cls-2" d="M248.76,494.96c-.06,0-.13,0-.19,0-1.97-.05-3.78-.87-5.11-2.32-4.3-4.69-9.69-13.25-12.91-18.36-8.72-13.83-17.73-28.12-31.27-32.11-2.71-.8-5.65-1.21-8.72-1.21-11.59,0-24.06,5.75-36.12,11.3-6.42,2.96-13.68,6.31-19.34,7.89l-.84.24-8.06-4.97-.17-.86c-1.18-6.13-1.55-15.52-1.77-21.13-.65-16.56-1.32-33.68-11.23-44.11-9.91-10.43-26.97-11.97-43.47-13.46-5.61-.51-14.99-1.35-21.05-2.85-1.98-.49-3.66-1.79-4.63-3.58-.96-1.78-1.13-3.91-.46-5.83,2.03-5.81,6.31-13.97,8.86-18.84,7.75-14.79,15.77-30.09,12.37-44.27-3.3-13.73-17.12-23.46-30.48-32.87-4.94-3.48-13.21-9.3-17.68-13.83-1.38-1.4-2.11-3.25-2.06-5.22.05-1.97.87-3.78,2.32-5.11,4.69-4.3,13.25-9.69,18.36-12.91,13.83-8.72,28.13-17.73,32.12-31.28,4.12-13.99-3.11-29.68-10.1-44.84-2.32-5.03-6.17-13.38-7.89-19.27-.57-1.95-.29-4.06.76-5.79,1.06-1.73,2.81-2.95,4.8-3.34,6.13-1.19,15.54-1.56,21.17-1.78,16.56-.65,33.67-1.32,44.1-11.23,10.43-9.91,11.97-26.97,13.46-43.47.51-5.6,1.35-14.97,2.85-21.03.48-1.96,1.77-3.64,3.54-4.61,1.77-.97,3.88-1.16,5.8-.51,5.51,1.85,12.62,5.57,18.88,8.86,12.39,6.49,25.16,13.19,37.28,13.19,2.43,0,4.8-.27,7.02-.81,13.73-3.3,23.46-17.12,32.87-30.48,3.48-4.94,9.3-13.21,13.83-17.68,1.39-1.38,3.25-2.1,5.22-2.06,1.97.05,3.78.87,5.11,2.32,4.3,4.7,9.69,13.25,12.92,18.36,8.72,13.83,17.73,28.12,31.27,32.11,2.71.8,5.65,1.21,8.72,1.21,11.59,0,24.06-5.75,36.12-11.31,1.5-.69,3.07-1.63,4.73-2.62,4.12-2.46,8.38-5,12.75-4.51,5.14.57,8.24,2.47,11.07,6.77,2.67,4.07,2.21,9.87,1.85,14.53-.14,1.74-.27,3.38-.22,4.67.65,16.56,1.32,33.67,11.23,44.1,9.91,10.43,26.97,11.97,43.47,13.46,5.6.51,14.99,1.35,21.05,2.85,1.98.49,3.66,1.79,4.63,3.58.97,1.78,1.13,3.91.47,5.83-2.02,5.79-6.29,13.94-8.84,18.81-7.77,14.83-15.79,30.12-12.39,44.3,3.3,13.73,17.12,23.46,30.48,32.87,4.94,3.48,13.22,9.3,17.69,13.83,1.38,1.4,2.11,3.25,2.06,5.22-.05,1.97-.87,3.78-2.32,5.1-4.69,4.3-13.25,9.69-18.36,12.91-13.83,8.72-28.13,17.73-32.12,31.28-4.12,13.99,3.11,29.68,10.1,44.84,2.31,5.01,6.17,13.37,7.89,19.27.57,1.95.29,4.06-.76,5.8-1.06,1.73-2.81,2.95-4.81,3.34-6.13,1.19-15.54,1.56-21.17,1.78-16.56.65-33.68,1.32-44.1,11.23-10.43,9.91-11.97,26.97-13.46,43.47-.51,5.63-1.36,14.98-2.85,21.03-.48,1.96-1.77,3.64-3.54,4.61-1.77.97-3.88,1.16-5.8.51-5.52-1.85-12.64-5.58-18.91-8.87-12.36-6.48-25.13-13.17-37.25-13.17-2.43,0-4.8.27-7.02.81-13.73,3.3-23.46,17.12-32.87,30.48-3.48,4.94-9.3,13.21-13.83,17.68h0c-1.35,1.33-3.13,2.06-5.03,2.06ZM190.55,436.95c3.46,0,6.77.46,9.86,1.37,14.99,4.42,24.41,19.36,33.53,33.82,3.15,5,8.43,13.36,12.48,17.79.58.64,1.38,1,2.26,1.02.87.03,1.69-.3,2.31-.91,4.28-4.22,9.97-12.31,13.37-17.14,9.84-13.97,20.01-28.42,35.21-32.07,2.53-.61,5.21-.92,7.96-.92,13.11,0,26.32,6.93,39.11,13.63,6.15,3.22,13.11,6.87,18.33,8.62.88.29,1.8.21,2.6-.23.8-.44,1.36-1.17,1.58-2.07,1.42-5.75,2.25-14.91,2.74-20.39,1.56-17.28,3.17-35.11,14.69-46.05,11.52-10.95,29.4-11.65,46.7-12.33,5.51-.22,14.73-.58,20.56-1.71.91-.18,1.67-.71,2.15-1.49.48-.78.6-1.7.34-2.59-1.64-5.61-5.42-13.81-7.68-18.71-7.31-15.85-14.86-32.23-10.31-47.66,4.42-14.99,19.36-24.41,33.81-33.52,5-3.16,13.37-8.43,17.8-12.48.64-.58,1-1.38,1.02-2.26.02-.87-.3-1.69-.91-2.31-4.22-4.27-12.31-9.97-17.14-13.37-13.97-9.84-28.42-20.01-32.07-35.2-3.76-15.64,4.62-31.61,12.71-47.06,2.52-4.81,6.7-12.79,8.63-18.31.3-.87.23-1.8-.21-2.6-.44-.81-1.17-1.38-2.07-1.6-5.77-1.43-14.96-2.26-20.45-2.75-17.24-1.56-35.06-3.17-46.01-14.69-10.95-11.52-11.65-29.4-12.33-46.7-.06-1.52.08-3.28.22-5.14.34-4.27.72-9.1-1.2-12.03-2.19-3.34-4.18-4.55-8.17-4.99-3.05-.34-6.72,1.85-10.26,3.97-1.68,1-3.41,2.04-5.11,2.82-12.45,5.74-25.32,11.67-37.79,11.67-3.46,0-6.77-.46-9.85-1.37-14.99-4.42-24.41-19.36-33.53-33.82-3.15-5-8.42-13.36-12.48-17.79-.58-.64-1.38-1-2.26-1.02-.84-.02-1.69.3-2.31.91-4.28,4.22-9.97,12.31-13.37,17.14-9.84,13.97-20.01,28.42-35.21,32.07-2.53.61-5.21.92-7.96.92-13.11,0-26.32-6.93-39.11-13.63-6.17-3.23-13.12-6.88-18.33-8.62-.87-.29-1.8-.21-2.6.23-.8.44-1.36,1.17-1.58,2.07-1.42,5.77-2.25,14.95-2.75,20.43-1.56,17.24-3.17,35.06-14.69,46.01-11.52,10.95-29.41,11.65-46.7,12.33-5.51.22-14.73.58-20.56,1.71-.91.18-1.67.71-2.15,1.49-.48.78-.6,1.7-.34,2.59,1.64,5.61,5.42,13.79,7.67,18.69,7.32,15.87,14.87,32.25,10.32,47.68-4.42,14.99-19.36,24.41-33.81,33.52-5,3.16-13.37,8.43-17.8,12.48-.64.58-1,1.38-1.02,2.26-.02.87.3,1.69.91,2.31,4.22,4.28,12.31,9.97,17.14,13.37,13.97,9.84,28.42,20.01,32.07,35.2,3.76,15.64-4.62,31.62-12.71,47.06-2.5,4.78-6.7,12.77-8.63,18.3-.3.87-.23,1.8.21,2.6.44.81,1.17,1.38,2.07,1.6,5.77,1.43,14.96,2.26,20.45,2.75,17.24,1.56,35.06,3.17,46.01,14.69,10.95,11.52,11.65,29.4,12.33,46.7.21,5.24.54,13.84,1.55,19.68l5.05,3.11c5.27-1.6,12.25-4.81,17.91-7.42,12.45-5.74,25.32-11.67,37.79-11.67Z"/>
          </g>
          <g class="cls-4">
            <g>
              <path class="cls-2" d="M107.98,252.61c-1.12,2.77.35,5.5-.37,8.14-1.34,1.53.42,3.29-.81,4.74.13.62,1.05,1.03.45,1.87-.16,2.12.06,4.37.2,6.48-.02,1.94-1.08,4.81.65,6.15,1.91-5.63,3.39-12.06,6.29-17.24-.69-1.86,1.08-3.42,1.97-4.72-.49-1.62.84-2.67,1.22-4.02.83-4.91,5.22-10.67,10.68-9.07,4.95.67,10.14-1.87,14.71.39,5.74-.52-7.3,17.56-6.15,20.44-2.16,3.82-4.18,7.31-5.74,11.37.93,2.91-3.33,5.1-2.46,7.01.04,1.62-1.04,3.42-.57,4.79.45.77,1.26,1.48.75,2.59,2.09,2.65,2.72,6.41,4.68,9.41.25,3.25,4.44,5.43,3.48,8.71,2.28,4.17,4.99,8.5,6.2,13.16,2.37,1.57,3.42,5.13,3.52,7.82-.09,3.29-8.14.69-10.82,1.53-9.62.73-14.84.99-16.91-10.09-1.28-.13-.83-1.13-1.03-1.88-.48-1.87-2.16-3.24-1.71-5.19-1.77-.91-.79-2.7-1.58-4.02-2.56-5.21-3.82-11.01-6.99-16.02-2.09,12.31,1.08,23.42-.79,36-1.68,2.04-3.71.2-5.56,1.55-.9.23-1.77-.62-2.69.16-3.72-1.01-7.84.09-11.92-.4-4.06-3.22-2.5-8.49-2.28-12.57-.91-8.25-.46-16.28-.47-24.51,1.07-7.73-.64-15.19,0-22.59-.51-2.56.42-5.7.08-8.5,1.5-1.56-1.5-3.01.06-4.46.43-1.49-.96-3.04,0-4.66.73-1.97-.54-3.43.05-5.44-1.26-5.59,7.35-5.11,10.89-4.69,7.43.11,12.76-2.29,12.98,7.76h0ZM124.1,252.43c.06-.12.12-.24.17-.35-1-.6-1.58.95-.17.35ZM125.79,262.32c-1.26.1-1.06,2.03.16,1.92,1.25-.1,1.07-2.03-.16-1.92ZM128.41,257.98c.33-1.71-1.82-.74-1.88,0,.35,1.33,1.86,1.62,1.88,0ZM133.1,250.97c-.73.58-.08.75.29,1.21.66-.29-.02-.71-.29-1.21ZM135.45,255.27c-.49-.28-.92-.97-1.2-.3.46.37.63,1.02,1.2.3Z"/>
              <path class="cls-2" d="M171.62,303.31c-1.29,2.32.81,4.77-.13,6.98-1.48,1.31.82,2.67,0,3.79-.49.44-.49.86.02,1.29-1.17,4.82,2.79,13.34-2.9,16.29-1.35.07-2.53.89-3.84.18-1.11,1.3-1.8-.32-3.06-.15-.84-.24-1.24.77-1.88.7-1.11-.71-2.22.53-3.21-.23-1.49-1.04-2.99,1.23-4.57-.29-7.24,1.07-2.78-14.16-3.6-18.28-.65-3.84-.51-8.25-.62-12.3.1-1.08-1.03-2.7.46-3.45.37-.16.47-.56.14-.97-1.51-7.07.88-15.29-.54-21.89-.25-1.26,0-2.89.34-4.23,0-1.09-1.41-2.39-.24-3.48-.61-3.4.57-7.24.06-10.51-.45-.81-.94-1.93.33-2.69-.05-1.3-1.12-2.47-.35-4,.3-5.63,3.38-6.27,8.67-5.29,3.92-.41,8.63.3,12.21-.99,3.12,2.15,6.69-.42,9.83,2.04,18.88-1.08,31.25,16.55,26.72,33.57-1.53,4.87-4.59,8.9-8.45,12.58-6.54,4.28-1.8,6.6-1.19,11.23,2.13,3.11,3.57,6.41,5.57,9.53.48,1.17-.5,2.59,1.06,3.27,1.53.49-.34,2.23,1.06,2.51,2.17,1.91,2.48,6.38,4.24,8.91,1.56.83.57,2.34,1.07,3.43-.02,1.82-2.49.48-3.46,1.14-3.58.33-7.61-.79-11.1.29-11.41.32-9.12-1.77-13.64-10.17.85-2.2-2.58-3.22-1.45-5.4-.5-1.15-2.11-1.81-1.16-3.39-2.39-4.64-3.82-10.35-5.93-15.12-.53,1.56-.34,3.41-.6,5.07.04.01.09.02.13.03h0ZM157.16,252.43c3.42.33-.19-2.6-1.46-.95.22.68.88,1.13,1.46.95ZM173.59,285.45c7.76-1.09,11.78-10.53,7.23-17.07-2.39-2.63-5.21-3.44-8.31-3.82-1.49-.33-.12,2.98-.5,3.71-.97,1.26.11,2.37-.13,3.64-1.11,1.39.25,2.62-.34,4.09.36,3.06-1.11,7.38,2.05,9.45h0Z"/>
              <path class="cls-2" d="M234.4,302.3c-3.16,18.62,24.36-.57,20.14,17.29-.61,4,2.75,10.7-2.49,12.32-1.33.93-2.46.14-3.88.68-2.2.6-4.13-.87-6.39-.29-8.37-.33-16.49-.51-24.44.24-5.81.17-7.17-2.37-6.3-7.82-.13-3.82-1.04-8.02.02-11.87-1.17-3.58.02-8.15-.1-11.94-.11-2.46-1.22-5.63-.07-8.1.05-1.18-1.26-2.24-.06-3.43.56-8.15-.88-16.34.01-24.53.72-25.11-4.11-18.8,19.75-20.25.67.45,1.15.28,1.74-.16.95-.22,1.67,1.19,2.67.35,2.34-.42,5.15-.31,7.7.05,3.62.43,11.07-1.75,11.58,3.32.74,3.41-.37,6.61.42,10.13,1.44,3.43-.37,6.69-3.83,6.88-4.56,1.36-10.79-1.54-14.9.57-2.11,1.64-1.62,4.19-1.38,6.51-.82,3.21,1.1,5.73,4.39,5.77,2.67-.25,5.69-.02,7.94.42,3.12-.7,2.06-1.01,4.44.99,2.39,2.25,1.25,13.18.54,16.77-4.23,4.55-17.11-2.41-17.47,6.09h0ZM221.2,305.11c-.18-.95-1.3-.76-1.52-.19.15.87,1.12.88,1.52.19ZM225.67,307.97c1.34.17,1.1-1.77.13-1.9-2.28-.81-2.24,2.21-.13,1.9ZM229.27,258.54c-.26,2.2,2.67,1.66,2.71-.03.02-1.56-2.67-1.57-2.71.03Z"/>
              <path class="cls-2" d="M305.11,250.47c1.98,7.93,3.71,17.79,5.53,26.42,1.86,3.33,1.14,8.47,3.29,12.22.37,3.16.9,6.21,1.31,9.16.71.63.38,1.31.24,2.11.12.8,1.4,1.36.5,2.38,1.87,5.46,3.12,10.63,3.3,15.77,1.08,3.04,5.14,12.38.53,13.07-3.2,1.12-7.25.54-10.85.36-2.08,1.58-4.14-.43-6.08.38-6.36,1.01-4.42-6.93-7.18-9.89-1.33.21-1.84-1.4-3.06-1.31-1.12.29-2.4.68-3.53.08-1.56-.39-3.07.99-4.67-.45-10.23,3.81.68,14.1-16.82,11.5-2.49-.84-5.25.44-7.65,0-.96-1.53-2.52.47-3.27-.39-.39-.94-2.65-.99-1.77-2.36,2.23-7.54,3.13-15.83,5.63-22.66-.88-1.19.44-1.96.29-3.02-.86-1.25,1.03-1.27.87-2.52-.15-3.29,1.29-6.49,1.96-9.77,2.19-1.83.29-4.81,2.07-6.73,1.07-1.15-.64-3.24,1.09-3.96.93-1.71-.08-4.13,1.08-5.96,1.88-5.97,1.95-12.2,4.41-17.91,1.12-4.29,1.2-10.53,6.21-12.04,5.81-.56,11.8-.47,17.9-.05,1.88-.41,3.27.6,5.02,0,1.57-.32,1.28.92,2.01,1.9,1.85.61,1.67,2.15,1.61,3.67h.03ZM264.48,317.63c-.67-1.15-1.29-.34-1.87.38-.01,1.02,1.96,1.08,1.87-.38ZM268.62,305.63c-.29-.11-.55-.22-.81-.32-.06.16-.12.32-.18.48.42.02.86.47.99-.16ZM269.74,302.24c-.73.7-.91,1.62.15,1.76.63-.44.28-1.05-.15-1.76ZM275.02,289.76c-.27-.27-.47-.47-.67-.67-.16.17-.33.33-.49.5.46.31.63.76,1.17.17ZM279.92,309.1c1.29.2,2.95-.14,2.48-1.54-1.61-.96-.19-3.68-2.23-4.16-1.93.81.4,3.02-1.5,4.14-.92.88.41,1.82,1.24,1.56h0ZM285.04,312.08c-.34-1.31-1.8-.37-1.96.49.5.7,1.68.33,1.96-.49ZM284.84,307.15c-2.5-.27-.62,1.66.68,1.58,1.68-.32.1-1.53-.68-1.58ZM289.23,269.28c.47-2.04-1.54-1.05.01-.01-2,6.18-2.04,12.78-3.04,19.42-1.24,6.33-5.14,17.13,5.41,12.79,2.55-3.87.47-8.13.09-12.17-1.53-6.5-.89-13.98-2.48-20.04h0ZM298.77,305.42c.2-.26.33-.42.46-.58-.41-.39-.69-.4-1.04.06.16.14.32.29.58.52ZM303.18,318.3c.32-1.85-2.58-2.26-3.4-.9-.55,1.05,3.62,2.93,3.4.9ZM301.07,299.31c.22.33.39.6.57.86.24-.25.47-.5.71-.76-.26-.23-.52-.46-.77-.69-.14.17-.29.33-.51.58ZM302.9,309.51c2.82.02-.74-3.01-.92-.78-.02.75.42.82.92.78ZM304.71,305.76c-.61,2.22,2.78,2.51,2.28.29-.18-1.57-2.32-2.29-2.28-.29Z"/>
              <path class="cls-2" d="M350.63,312.08c-1.24,4.61-.33,8.18-.6,12.85,1.27,5.29-2.27,8.1-7.37,6.85-5.01-.44-12.14,2.32-15.66-1.63-1.31-2.22-.1-5.85-.26-8.5-.86-1.33-.42-2.59-.39-4.31-.46-1.61.1-2.63.16-4.09-.85-.98-.64-1.94.09-2.77.2-1.91-.88-4.03.38-6-1.2-3.95-.24-8.89-.71-12.92-.96-3.66,1.38-7.19-.11-10.76-.44-1.33,1.7-2.6.56-3.82-1.48-3.16,2.26-8.02-1.98-10.39-3.5-2.88-12.18,1-11.28-5.87.96-1.3-.21-2.23-.26-3.54.25-.63.4-1.17-.19-1.72-.19-1.05,1.33-1.66.3-2.76-.88-1.3.31-2.33,0-3.67-.92-5.44,6.71-4.74,9.96-4.17,1.02.52,2.17-.66,3.24-.53.61.01.78,1.17,1.59.63,5.55-.61,11.28-.19,17.21-.84,3.86,1.31,8.98-.37,13.28.87,3.65-1.3,5.78,3.93,5.07,6.8-.13,2.94.17,5.96-.01,8.83,1.38,8.62-12.55,1.34-14.05,8.72,1.15,5.72.19,11.78.31,17.71.53,8.33-.36,16.55.72,25.02h0ZM342.22,270.14c-.38.31-.49.56-.08.76.44-.1.38-.39.08-.76ZM355.27,252.84c-.13-.59-1.52-.5-1.78-.09-.05,1.02,1.54.8,1.78.09Z"/>
              <path class="cls-2" d="M388.59,303.31c-1.29,2.32.81,4.77-.13,6.98-1.48,1.31.82,2.67,0,3.79-.49.44-.49.86.02,1.29-1.17,4.82,2.79,13.34-2.9,16.29-1.35.07-2.53.89-3.84.18-1.11,1.3-1.8-.32-3.06-.15-.84-.24-1.24.77-1.88.7-1.11-.71-2.22.53-3.21-.23-1.49-1.04-2.99,1.23-4.57-.29-7.24,1.07-2.78-14.16-3.6-18.28-.65-3.84-.51-8.25-.62-12.3.1-1.08-1.03-2.7.46-3.45.37-.16.47-.56.14-.97-1.51-7.07.88-15.29-.54-21.89-.25-1.26,0-2.89.34-4.23,0-1.09-1.41-2.39-.24-3.48-.61-3.4.57-7.24.06-10.51-.45-.81-.94-1.93.33-2.69-.05-1.3-1.12-2.47-.35-4,.3-5.63,3.38-6.27,8.67-5.29,3.92-.41,8.63.3,12.21-.99,3.12,2.15,6.69-.42,9.83,2.04,18.88-1.08,31.25,16.55,26.72,33.57-1.53,4.87-4.59,8.9-8.45,12.58-6.54,4.28-1.8,6.6-1.19,11.23,2.13,3.11,3.57,6.41,5.57,9.53.48,1.17-.5,2.59,1.06,3.27,1.53.49-.34,2.23,1.06,2.51,2.17,1.91,2.48,6.38,4.24,8.91,1.56.83.57,2.34,1.07,3.43-.02,1.82-2.49.48-3.46,1.14-3.58.33-7.61-.79-11.1.29-11.41.32-9.12-1.77-13.64-10.17.85-2.2-2.58-3.22-1.45-5.4-.5-1.15-2.11-1.81-1.16-3.39-2.39-4.64-3.82-10.35-5.93-15.12-.53,1.56-.34,3.41-.6,5.07.04.01.09.02.13.03h0ZM374.12,252.43c3.42.33-.19-2.6-1.46-.95.22.68.88,1.13,1.46.95ZM390.55,285.45c7.76-1.09,11.78-10.53,7.23-17.07-2.39-2.63-5.21-3.44-8.31-3.82-1.49-.33-.12,2.98-.5,3.71-.97,1.26.11,2.37-.13,3.64-1.11,1.39.25,2.62-.34,4.09.36,3.06-1.11,7.38,2.05,9.45h0Z"/>
            </g>
            <g>
              <path class="cls-2" d="M176.89,173.24c1.46,5.84,2.73,13.1,4.07,19.45,1.37,2.45.84,6.23,2.42,9,.27,2.32.66,4.57.96,6.74.52.47.28.97.18,1.55.09.59,1.03,1,.37,1.75,1.37,4.02,2.3,7.82,2.43,11.62.79,2.24,3.79,9.12.39,9.62-2.35.83-5.34.4-7.99.26-1.53,1.17-3.05-.32-4.48.28-4.68.74-3.26-5.1-5.29-7.28-.98.15-1.35-1.03-2.26-.97-.82.21-1.77.5-2.6.06-1.15-.29-2.26.73-3.44-.33-7.53,2.8.5,10.39-12.38,8.47-1.83-.62-3.86.33-5.63,0-.71-1.12-1.86.35-2.41-.29-.29-.69-1.95-.73-1.31-1.74,1.64-5.55,2.3-11.66,4.15-16.68-.65-.88.32-1.44.21-2.22-.63-.92.76-.94.64-1.86-.11-2.42.95-4.78,1.44-7.2,1.61-1.34.21-3.54,1.53-4.96.79-.85-.48-2.38.8-2.91.68-1.26-.06-3.04.79-4.39,1.39-4.4,1.44-8.98,3.25-13.19.82-3.16.88-7.75,4.57-8.86,4.28-.41,8.69-.34,13.18-.04,1.38-.3,2.41.44,3.7,0,1.16-.24.94.68,1.48,1.4,1.37.45,1.23,1.59,1.19,2.7h.02ZM146.97,222.69c-.5-.85-.95-.25-1.37.28-.01.75,1.44.79,1.37-.28ZM150.02,213.86c-.21-.08-.4-.16-.6-.23-.04.12-.09.23-.13.35.31.01.63.35.73-.12ZM150.85,211.36c-.54.52-.67,1.19.11,1.3.46-.33.21-.77-.11-1.3ZM154.74,202.17c-.2-.2-.35-.34-.5-.49-.12.12-.24.25-.36.37.34.23.46.56.86.12ZM158.34,216.41c.95.15,2.17-.11,1.83-1.14-1.18-.71-.14-2.71-1.64-3.06-1.42.59.3,2.22-1.1,3.05-.68.65.3,1.34.91,1.15h0ZM162.11,218.61c-.25-.96-1.32-.27-1.44.36.37.52,1.24.24,1.44-.36ZM161.97,214.98c-1.84-.2-.46,1.22.5,1.16,1.24-.24.07-1.12-.5-1.16ZM165.2,187.09c.34-1.5-1.14-.77,0,0-1.48,4.55-1.5,9.41-2.24,14.3-.91,4.66-3.78,12.61,3.99,9.42,1.88-2.85.35-5.99.07-8.96-1.12-4.78-.66-10.3-1.82-14.75h0ZM172.22,213.7c.15-.19.24-.31.34-.43-.3-.29-.51-.29-.77.05.12.11.24.21.43.38ZM175.47,223.18c.23-1.36-1.9-1.66-2.5-.66-.4.78,2.66,2.16,2.5.66ZM173.92,209.2c.16.24.29.44.42.64.17-.19.35-.37.52-.56-.19-.17-.38-.34-.57-.51-.11.12-.21.24-.37.43ZM175.26,216.72c2.08.01-.55-2.22-.68-.57-.01.55.31.6.68.57ZM176.6,213.95c-.45,1.64,2.05,1.85,1.68.22-.13-1.16-1.71-1.69-1.68-.22Z"/>
              <path class="cls-2" d="M224.22,199.7c-3.58.76,2.94,3,3.84,3.07.56,0,1.03.07,1.1.8.31,1.06,2.05.35,2.25,1.76,7.3,11.08-.31,27.62-14.08,27.7-.76-.7-1.13.54-1.99.3-1.24-.66-1.98.48-3.02.58-1.84-.73-3.98-.07-5.89-.28-1.31.06-2.73-.68-4.14-.17-4.63.03-13.88,2.13-11.62-5.64-.96-4.65-.02-9.29-.47-14,.41-1.84.32-3.83-.08-5.32.52-1.57-.08-3.26.26-4.82-.07-8.63-.11-18.89.07-27.34-.54-10.58,2.67-6.33,10.82-7.26,1.19-.54,2.22,1.15,3.31-.18.71.06,1.44.4,2.07-.25.57.28.9.9,1.66.42,4.91-.53,9.97,1.5,14.46,2.43,1.75,1.52,4.52,1.39,5.74,4.02,3.05,2.16,3.87,5.65,4.34,9.05.69,6.17-1.48,14.18-8.62,15.13h0ZM206.12,173.77c1.5-.64-1.33-1.3-.68-.29.19.12.41.18.68.29ZM216.38,213.15c.15-3.61-3.88-6.45-7.43-6.01-2.25,1.27-.65,4.54-.92,6.5-.25.6-.9.92-.32,1.55.91,1.19-.78,2.37.44,3.48.27.31.02,1.36.7,1.09,4.06,0,7.37-2.08,7.54-6.62h0ZM215.29,186.04c.07-.02.13-.04.2-.06-.75-1.9-7.38-5.17-7.58-1.77.45,3.38-1,6.71.54,9.61,4.7,1.54,8.45-3.23,6.85-7.78ZM210.43,173.32c-.35.59-.62,1.43.22,1.46.88-.4.25-.89-.22-1.46ZM215.67,179.72c-.26.48-.32,1.25.46,1.1.93-.03.38-1.34-.46-1.1ZM218.94,176.87c-.26-.29-.34-.34-.58-.07.18.32.26.29.58.07ZM220.1,180.02c-.27-.49-.37-1.69-1.11-1.37-.95.71.57,3.19,1.11,1.37ZM223.76,189.14c.23-.32.27-.41-.06-.59-.28.24-.23.32.06.59ZM228.5,183.71c-.56-.46-.94-.81-1.24-.17.22.56.75.46,1.24.17ZM227.71,187.03c.29-.6.39-.65,0-1.04-.39.39-.3.43,0,1.04Z"/>
              <path class="cls-2" d="M261.38,234.47c-19.08,1.44-28.75-19.64-26.45-36.45.3-1.26-.63-2.19.28-3.36.34-1.35-.27-2.64.33-3.92,1.53-2.86.44-6.73,2.95-9.01,3.76-7.65,12.05-14.8,20.84-14.02,31.84-.65,32.77,63.92,2.04,66.75h0ZM259.41,184.07c-9.08-.77-8.74,33.57-.91,34.14,9.55,1.79,9.54-35.02.91-34.14ZM275,210.69c.24-.18.42-.31.6-.45-.3-.42-.63-.02-.98.11.1.09.21.19.38.34h0Z"/>
              <path class="cls-2" d="M302.96,172.89c-.62,3.81-.23,7.55-.04,11.46-.29,4.34,0,8.35-.18,12.5.21,4.92-2.7,23.81,5.66,21.04,5.81-.66,1.9-15.99,3.59-19.82-.12-2.88-.6-5.75-.5-8.63.11-.34.8-.66.23-1.02-.82-.47-.14-1.15-.43-1.88.56-1.6-.09-2.96.53-4.53-1.17-1.17.61-2.79-.17-3.97-.31-.28-.19-.67-.08-1.06.47-4.63-1.27-9.54,5.75-7.76,3.02-.17,11.21-2.2,11.56,2.28-.02,3.47.5,6.95.12,10.31-.26.95.85,1.77-.01,2.68-.18.39-.49.63-.05,1.06-.21,5.06.35,9.99.25,15.18-.91,1.95.12,4.41-.15,6.33-.98.79-.31,1.67.06,2.49-.65.73-.16,1.29.14,1.95-1.05,4.75-.31,9.95-3.12,14.31-.86.19-.49,1.22-1.16,1.51-1.6-.01-1.31,1.99-2.58,2.31-.66.33-.65,1.39-1.68,1.13-.89.23-1.14,1.72-2.34,1.44-4.1,2.25-9.56,2.43-13.66,1.83-.67.38-1.06-.61-1.68-.19-2.01.8-3.75-1.74-5.91-1.42-3.75-.8-5.52-3.93-7.64-6.55-1.36-3.68-2.72-7.41-3.71-11.24-.77-1.31.2-2.94-.46-4.23-1.07-.97.53-1.96,0-2.81-.39-.33-.34-.76-.27-1.18.35-2.35.92-4.54,0-6.63.86-1.39-.16-2.32.22-3.78.18-4.19.36-8.7-.03-12.96,1.11-5.64-3.26-16.12,6.54-14.34,1.98-.49,4.22.2,6.13.46,2.21-1.31,5.67.89,4.98,3.68.04,0,.07.01.11.02h0Z"/>
              <path class="cls-2" d="M357.19,218.6c-.91,3.4-.25,6.03-.44,9.46.94,3.89-1.67,5.96-5.43,5.05-3.69-.33-8.94,1.71-11.53-1.2-.97-1.63-.07-4.3-.19-6.26-.64-.98-.31-1.91-.29-3.17-.34-1.19.07-1.94.12-3.01-.63-.72-.47-1.43.06-2.04.15-1.41-.64-2.97.28-4.41-.88-2.91-.17-6.55-.52-9.51-.7-2.69,1.01-5.3-.08-7.92-.33-.98,1.25-1.92.41-2.82-1.09-2.32,1.67-5.9-1.46-7.65-2.58-2.12-8.97.73-8.3-4.32.7-.96-.16-1.64-.19-2.6.18-.46.29-.86-.14-1.27-.14-.77.98-1.22.22-2.03-.65-.96.23-1.71,0-2.71-.68-4.01,4.94-3.49,7.33-3.07.75.38,1.6-.48,2.39-.39.45,0,.58.86,1.17.47,4.09-.45,8.3-.14,12.67-.62,2.84.97,6.61-.27,9.78.64,2.68-.95,4.26,2.9,3.73,5.01-.1,2.17.12,4.39,0,6.5,1.02,6.34-9.24.99-10.35,6.42.85,4.21.14,8.68.22,13.04.39,6.13-.26,12.19.53,18.43h0ZM351,187.73c-.28.23-.36.42-.06.56.32-.07.28-.28.06-.56ZM360.61,174.99c-.1-.43-1.12-.37-1.31-.07-.04.75,1.13.59,1.31.07Z"/>
            </g>
          </g>
        </g>
      </g>
    </g>
  </g>
</svg>